<svg xmlns="http://www.w3.org/2000/svg" width="70" height="50" viewBox="0 0 83 62">
  <defs>
    <style>
      .cls-1 {
        fill: #fff;
      }
    </style>
  </defs>
      <path class="st0" d="M24.1 15.2c-1.2 0-1.5.8-1.5.8v5.6h2.8V16s-.2-.8-1.3-.8zm-.1-.3c.8 0 1.5-.6 1.5-1.4 0-.8-.6-1.4-1.5-1.4-.8 0-1.5.6-1.5 1.4.1.9.7 1.4 1.5 1.4zm10.5 6.5h2.7v-6.1s0-1.1 1.2-1.1c1.1 0 1.4.5 1.4.5v.8s.2.7 1.4.7 1.3-.7 1.3-.7v-.9s0-2.8-3.7-2.8c-4.4 0-4.3 3-4.3 3v6.6zm10.9-4.6c0-1.4.5-2.3 2-2.3 1.4 0 1.9.8 1.9 2.3 0 1.5-.4 2.2-1.9 2.2-1.5-.1-2-.8-2-2.2zm1.9-4.7c-3.3 0-4.4 2.2-4.4 4.7s1.2 4.6 4.4 4.6 4.4-2.1 4.4-4.6c0-2.5-1.1-4.7-4.4-4.7zm-14.4 0h-1.7c-2.6 0-5.1 1.7-5.1 4.7s2.6 4.7 5.1 4.7h1.7s1.2-.3 1.2-1.4c0-1.1-1.2-1.2-1.2-1.2h-1.6c-1.5 0-2.2-.9-2.2-2.1 0-1.1.8-2 2.2-2h1.6s1.2-.1 1.2-1.3c0-1.4-1.2-1.4-1.2-1.4zm-16 15.2V15.8c0-.5.4-.9 1.1-.9.7 0 1.1.4 1.1.9v11.5H22V15.1c0-1.8-1.8-3-3.9-3-1 0-1.9.5-2.6 1.1-.7-.6-1.7-1.1-2.6-1.1-2 0-3.9 1.1-3.9 3v12.2h2.9V15.8c0-.5.4-.9 1.1-.9.7 0 1.1.4 1.1.9v11.5h2.8zm22.7-4.7l-.6 1.7c3.4 0 4.7 1 4.7 1.8-.1 1.1-2.8 2-6.1 2.1L36.2 32c9.3 0 15.2-2.6 15.4-5.2.2-2-3.5-4.5-12-4.2zm-8.7 6.2c0-.5-1.6-.8-2.7-1.2-1.1-.4-2.9-1.3-2.7-2.7.1-1 1-2.1 5.8-2.3 3.4-.2 6.7-.1 6.7-.1l-.6 1.7h-5.9c-1.1 0-2.7 0-2.7.6 0 .5 2.4 1 3.7 1.4 1.9.6 3.5 1.5 3.1 3.3-.6 2.6-3.9 2.5-7.9 2.5-2.8 0-5.4-.2-5.4-.2l1.1-3s2.3.3 5 .3c1.9.2 2.5.2 2.5-.3zM47.3 43.9H40c-1.4 0-2.4 0-3.2-.1-1.1-.1-2-.4-2.7-.7-1.7-.8-2.1-2.1-1.3-3.8.8-1.7 2.2-2.9 4.1-3.7 1-.4 2.1-.7 3.4-.9 1.3-.2 2.8-.3 4.4-.3h7.2l-.9 1.9h-7.1c-1.6 0-2.9.2-3.8.7-.9.5-1.6 1.3-2.2 2.4-.5 1-.4 1.6 0 2 .5.4 1.5.6 3.2.6h7.1l-.9 1.9z"/><path class="st0" d="M36.6 34.4H31L25.9 37l-2.4-2.6h-5.8l4.4 4.6-12.9 6.6h5.5l9.2-4.7 2.9 3h5.7l-4.7-5zM68.7 21.5c0-.7-.6-1.2-1.2-1.2-.7 0-1.2.5-1.2 1.2s.5 1.3 1.2 1.3c.6-.1 1.2-.5 1.2-1.3zM66 26.1l1.3-1.8c.1-.2.2-.3.3-.4-.1 0-.3.1-.6.1-1.1 0-2.2-.8-2.2-2.4 0-1.5 1.2-2.6 2.6-2.6.9 0 1.6.3 2.1.9.4.5.6 1.2.6 1.7 0 .7-.3 1.3-.6 1.8l-1.8 2.7H66zM72.1 23.8c0 .6.3 1.3 1.1 1.3s1.1-.7 1.1-1.3v-2.2c0-.4-.2-1.3-1.1-1.3-.8 0-1.1.7-1.1 1.3v2.2zm-1.4-2.2c0-2 1.7-2.6 2.5-2.6 1 0 2.5.7 2.5 2.6v2.2c0 1.9-1.5 2.6-2.5 2.6s-2.5-.6-2.5-2.6v-2.2zM66.1 17h-3.3c-.2 0-.4.1-.4.3l-1.7 5.2c-.2.5-.7.4-.9 0l-.8-2.6-.2-.6c-.3-1.2.6-1.4 1-1.4.1 0 .3-.1.3-.3l.1-.3c.1-.2-.1-.3-.2-.3h-2.6c-.3 0-.5.4-.4.7l2.6 8.1c.1.2.2.3.4.3h1.2c.2 0 .4-.1.4-.3l1.9-5.6.2-.5c.7-1.5 1.6-1.7 2-1.6.2 0 .3-.1.4-.3l.2-.5c.1-.1 0-.3-.2-.3M62.6 39v-1c-.7-.1-1.4-.1-1.4-.9v-4.6c0-.8.8-.8 1.4-.9v-1h-5.2v1c.6 0 1.4.1 1.4.9v4.6c0 .8-.7.8-1.4.9v1h5.2z"/><path class="st0" d="M67.4 39v-1c-.8 0-1.4-.1-1.4-.8v-4.6c0-.8.8-.8 1.4-.9v-1h-5.2v1c.6 0 1.4.1 1.4.9v4.6c0 .8-.7.8-1.4.9v1h5.2z"/><path d="M9.3 62c-4.6 0-5.3 0-7-1.1C.8 59.9 0 58 0 55.2v-3V6.3C.1 3.8 1.2 1.9 3.2.9 5.1 0 7.5 0 9.7 0h.7s58.2.1 62.1.1c4.5 0 6.8.4 8.1 1.3.8.6 2.3 1.7 2.4 5 .1 2.6 0 40.9 0 42.5 0 2-.7 3.6-1.8 4.6-1.6 1.5-3.5 1.4-3.7 1.4H57.4c-1.2 0-1.7.2-1.9.2-.3.3-1.6 1.7-2.5 2.5-.9 1-3.6 3.8-3.6 3.8l-.6.6H38v-3.7h-3.7c-1.1 0-1.2.1-1.4.3l-.3.3c-.5.5-2.8 2.7-2.8 2.7l-.3.4H9.3zM8.9 3c-1.6 0-3.3.1-4.3.6-.4.2-1.5.7-1.6 2.8v48.8c0 1.7.4 2.8 1 3.2.9.6.9.6 5.7.6h18.6c.7-.6 1.9-1.8 2.3-2.2l.2-.2c.8-.9 1.6-1.3 3.6-1.3h4c.4 0 1.2.2 1.8.7.4.4.9 1.1.9 2.2v.8h6.6c.8-.8 2.5-2.6 3.2-3.3.8-.9 2.2-2.2 2.5-2.5.6-.7 2-1.1 4-1.1h20.2c.6 0 2.4-.2 2.5-3.1 0-1 .1-39.8 0-42.4 0-1.9-.6-2.3-1.1-2.7-.5-.3-1.9-.7-6.3-.7-4.1-.1-62.3-.2-62.3-.2H8.9zm29.4 55.3z" fill="#231f20"/>
    </svg>